<svg width="33" height="33" viewBox="0 0 33 33" fill="none" xmlns="http://www.w3.org/2000/svg">
<path d="M16.1953 1C24.9695 1 32.1953 8.22581 32.1953 17C32.1953 25.8387 24.9695 33 16.1953 33C7.3566 33 0.195312 25.8387 0.195312 17C0.195312 8.22581 7.3566 1 16.1953 1ZM23.5501 11.9032C23.6147 11.7097 23.6147 11.5161 23.5501 11.2581C23.5501 11.129 23.4211 10.9355 23.3566 10.871C23.1631 10.6774 22.8405 10.6774 22.7114 10.6774C22.1308 10.6774 21.1631 11 16.7114 12.871C15.1631 13.5161 12.0663 14.8065 7.42112 16.871C6.64693 17.1935 6.25983 17.4516 6.19531 17.7742C6.1308 18.2903 6.96951 18.4839 7.93725 18.8065C8.77596 19.0645 9.87273 19.3871 10.4534 19.3871C10.9695 19.3871 11.5502 19.1935 12.1953 18.7419C16.5179 15.7742 18.776 14.2903 18.905 14.2903C19.034 14.2903 19.1631 14.2258 19.2276 14.2903C19.3566 14.4194 19.3566 14.5484 19.2921 14.6129C19.2276 14.9355 15.1631 18.6774 14.905 18.9355C14.0018 19.8387 12.9695 20.4194 14.5824 21.4516C15.9372 22.3548 16.7114 22.9355 18.1308 23.8387C19.034 24.4194 19.7437 25.129 20.6469 25.0645C21.0985 25 21.5502 24.6129 21.7437 23.3871C22.3243 20.6129 23.3566 14.4194 23.5501 11.9032Z" fill="#1E96C8"/>
</svg>
